<svg width="80" height="80" viewBox="0 0 80 80" fill="none" xmlns="http://www.w3.org/2000/svg">
<rect x="3.19995" y="3.19995" width="73.6" height="73.6" rx="36.8" fill="#328F3F" fill-opacity="0.12"/>
<mask id="mask0_823_2961" style="mask-type:alpha" maskUnits="userSpaceOnUse" x="0" y="0" width="80" height="80">
<rect width="80" height="80" fill="#D9D9D9"/>
</mask>
<g mask="url(#mask0_823_2961)">
<path d="M35.2679 47.1568L27.5245 39.4126C27.0629 38.9515 26.4826 38.7154 25.7837 38.7043C25.0854 38.6937 24.4945 38.9298 24.0112 39.4126C23.5284 39.8959 23.287 40.4815 23.287 41.1693C23.287 41.857 23.5284 42.4426 24.0112 42.9259L33.1587 52.0734C33.7615 52.6757 34.4645 52.9768 35.2679 52.9768C36.0712 52.9768 36.7743 52.6757 37.377 52.0734L55.922 33.5284C56.3831 33.0668 56.6193 32.4865 56.6304 31.7876C56.6409 31.0893 56.4048 30.4984 55.922 30.0151C55.4387 29.5323 54.8531 29.2909 54.1654 29.2909C53.4776 29.2909 52.892 29.5323 52.4087 30.0151L35.2679 47.1568ZM40.0045 71.6693C35.6245 71.6693 31.5076 70.8382 27.6537 69.1759C23.7998 67.5137 20.4476 65.2579 17.597 62.4084C14.7465 59.559 12.4895 56.2082 10.8262 52.3559C9.16342 48.5037 8.33203 44.3879 8.33203 40.0084C8.33203 35.6284 9.16314 31.5115 10.8254 27.6576C12.4876 23.8037 14.7434 20.4515 17.5929 17.6009C20.4423 14.7504 23.7931 12.4934 27.6454 10.8301C31.4976 9.16733 35.6134 8.33594 39.9929 8.33594C44.3729 8.33594 48.4898 9.16705 52.3437 10.8293C56.1976 12.4915 59.5498 14.7473 62.4004 17.5968C65.2509 20.4462 67.5079 23.797 69.1712 27.6493C70.834 31.5015 71.6654 35.6173 71.6654 39.9968C71.6654 44.3768 70.8343 48.4937 69.172 52.3476C67.5098 56.2015 65.254 59.5537 62.4045 62.4043C59.5551 65.2548 56.2043 67.5118 52.352 69.1751C48.4998 70.8379 44.384 71.6693 40.0045 71.6693Z" fill="#3C9949"/>
</g>
</svg>
