<svg width="78" height="12" viewBox="0 0 78 12" fill="none" xmlns="http://www.w3.org/2000/svg">
<g clip-path="url(#clip0_639_10389)">
<path d="M5.89807 11.9997H0.823479C0.620065 11.9997 0.470185 11.957 0.373832 11.8717C0.288185 11.7757 0.245361 11.6264 0.245361 11.4237V9.55168C0.245361 9.34899 0.288185 9.20499 0.373832 9.11968C0.470185 9.02368 0.620065 8.97568 0.823479 8.97568H5.1433C5.28248 8.97568 5.38418 8.93299 5.44842 8.84768C5.52336 8.75168 5.56083 8.63968 5.56083 8.51168C5.56083 8.33036 5.52336 8.19699 5.44842 8.11168C5.38418 8.02636 5.28248 7.97836 5.1433 7.96768L2.73448 7.63168C1.98506 7.52499 1.38019 7.27968 0.919832 6.89568C0.470185 6.51168 0.245361 5.87168 0.245361 4.97568V3.29568C0.245361 2.38901 0.539773 1.69568 1.1286 1.21568C1.71742 0.725007 2.53106 0.479675 3.56954 0.479675H8.06601C8.26944 0.479675 8.41397 0.527675 8.49959 0.623676C8.59595 0.709007 8.64412 0.853007 8.64412 1.05568V2.95968C8.64412 3.16234 8.59595 3.31168 8.49959 3.40768C8.41397 3.49301 8.26944 3.53568 8.06601 3.53568H4.3243C4.18512 3.53568 4.07807 3.58368 4.00313 3.67968C3.92818 3.76501 3.89071 3.87701 3.89071 4.01568C3.89071 4.15434 3.92818 4.27168 4.00313 4.36768C4.07807 4.46368 4.18512 4.51701 4.3243 4.52768L6.71707 4.84768C7.4665 4.95434 8.07134 5.19968 8.53171 5.58368C8.99208 5.96768 9.22224 6.60768 9.22224 7.50368V9.18368C9.22224 10.0904 8.92246 10.789 8.32295 11.2797C7.73411 11.7597 6.92583 11.9997 5.89807 11.9997ZM15.1703 3.83968L14.4155 6.27168H16.9367L16.182 3.83968C16.1392 3.74368 16.091 3.67434 16.0374 3.63168C15.9946 3.58901 15.9411 3.56768 15.8768 3.56768H15.4754C15.4111 3.56768 15.3523 3.58901 15.2987 3.63168C15.2559 3.67434 15.2131 3.74368 15.1703 3.83968ZM14.2549 11.4237C14.2549 11.6264 14.2067 11.7757 14.1104 11.8717C14.0247 11.957 13.8802 11.9997 13.6768 11.9997H11.3161C11.1128 11.9997 10.9628 11.957 10.8665 11.8717C10.7809 11.7757 10.738 11.6264 10.738 11.4237V7.19968C10.738 6.87968 10.7862 6.51168 10.8826 6.09568C10.9896 5.67968 11.1502 5.19434 11.3643 4.63968L12.7614 1.00768C12.8257 0.826344 12.922 0.693007 13.0505 0.607676C13.1897 0.522342 13.3663 0.479675 13.5804 0.479675H17.9003C18.1037 0.479675 18.2696 0.522342 18.3981 0.607676C18.5373 0.693007 18.639 0.826344 18.7032 1.00768L20.1003 4.63968C20.3145 5.19434 20.4697 5.67968 20.566 6.09568C20.6731 6.51168 20.7266 6.87968 20.7266 7.19968V11.4237C20.7266 11.6264 20.6784 11.7757 20.5821 11.8717C20.4965 11.957 20.3519 11.9997 20.1485 11.9997H17.7236C17.5095 11.9997 17.3489 11.957 17.2418 11.8717C17.1455 11.7757 17.0973 11.6264 17.0973 11.4237V9.18368H14.2549V11.4237ZM28.0731 11.9997H22.9985C22.795 11.9997 22.6452 11.957 22.5488 11.8717C22.4631 11.7757 22.4204 11.6264 22.4204 11.4237V9.55168C22.4204 9.34899 22.4631 9.20499 22.5488 9.11968C22.6452 9.02368 22.795 8.97568 22.9985 8.97568H27.3183C27.4574 8.97568 27.5592 8.93299 27.6234 8.84768C27.6983 8.75168 27.7358 8.63968 27.7358 8.51168C27.7358 8.33036 27.6983 8.19699 27.6234 8.11168C27.5592 8.02636 27.4574 7.97836 27.3183 7.96768L24.9095 7.63168C24.16 7.52499 23.5551 7.27968 23.0948 6.89568C22.6452 6.51168 22.4204 5.87168 22.4204 4.97568V3.29568C22.4204 2.38901 22.7147 1.69568 23.3036 1.21568C23.8924 0.725007 24.706 0.479675 25.7445 0.479675H30.241C30.4444 0.479675 30.5889 0.527675 30.6746 0.623676C30.7709 0.709007 30.8191 0.853007 30.8191 1.05568V2.95968C30.8191 3.16234 30.7709 3.31168 30.6746 3.40768C30.5889 3.49301 30.4444 3.53568 30.241 3.53568H26.4993C26.3601 3.53568 26.253 3.58368 26.1781 3.67968C26.1032 3.76501 26.0657 3.87701 26.0657 4.01568C26.0657 4.15434 26.1032 4.27168 26.1781 4.36768C26.253 4.46368 26.3601 4.51701 26.4993 4.52768L28.8921 4.84768C29.6414 4.95434 30.2463 5.19968 30.7067 5.58368C31.167 5.96768 31.3972 6.60768 31.3972 7.50368V9.18368C31.3972 10.0904 31.0975 10.789 30.4979 11.2797C29.9091 11.7597 29.1008 11.9997 28.0731 11.9997ZM36.2211 11.9997H33.732C33.5286 11.9997 33.3787 11.957 33.2824 11.8717C33.1967 11.7757 33.1539 11.6264 33.1539 11.4237V1.05568C33.1539 0.853007 33.1967 0.709007 33.2824 0.623676C33.3787 0.527675 33.5286 0.479675 33.732 0.479675H36.2211C36.4246 0.479675 36.5691 0.527675 36.6547 0.623676C36.7511 0.709007 36.7993 0.853007 36.7993 1.05568V4.52768H39.4811V1.05568C39.4811 0.853007 39.5239 0.709007 39.6095 0.623676C39.7059 0.527675 39.8558 0.479675 40.0592 0.479675H42.5483C42.7517 0.479675 42.8963 0.527675 42.9819 0.623676C43.0782 0.709007 43.1264 0.853007 43.1264 1.05568V11.4237C43.1264 11.6264 43.0782 11.7757 42.9819 11.8717C42.8963 11.957 42.7517 11.9997 42.5483 11.9997H40.0592C39.8558 11.9997 39.7059 11.957 39.6095 11.8717C39.5239 11.7757 39.4811 11.6264 39.4811 11.4237V7.87168H36.7993V11.4237C36.7993 11.6264 36.7511 11.7757 36.6547 11.8717C36.5691 11.957 36.4246 11.9997 36.2211 11.9997ZM49.5305 3.83968L48.7757 6.27168H51.297L50.5422 3.83968C50.4994 3.74368 50.4512 3.67434 50.3977 3.63168C50.3548 3.58901 50.3013 3.56768 50.2371 3.56768H49.8356C49.7714 3.56768 49.7125 3.58901 49.659 3.63168C49.6161 3.67434 49.5734 3.74368 49.5305 3.83968ZM48.6152 11.4237C48.6152 11.6264 48.567 11.7757 48.4706 11.8717C48.385 11.957 48.2405 11.9997 48.037 11.9997H45.6764C45.473 11.9997 45.3231 11.957 45.2267 11.8717C45.1411 11.7757 45.0983 11.6264 45.0983 11.4237V7.19968C45.0983 6.87968 45.1465 6.51168 45.2428 6.09568C45.3499 5.67968 45.5105 5.19434 45.7246 4.63968L47.1217 1.00768C47.1859 0.826344 47.2823 0.693007 47.4107 0.607676C47.5499 0.522342 47.7266 0.479675 47.9407 0.479675H52.2605C52.4639 0.479675 52.6299 0.522342 52.7583 0.607676C52.8975 0.693007 52.9992 0.826344 53.0634 1.00768L54.4606 4.63968C54.6747 5.19434 54.8299 5.67968 54.9263 6.09568C55.0334 6.51168 55.0869 6.87968 55.0869 7.19968V11.4237C55.0869 11.6264 55.0387 11.7757 54.9423 11.8717C54.8567 11.957 54.7122 11.9997 54.5087 11.9997H52.0839C51.8698 11.9997 51.7092 11.957 51.6021 11.8717C51.5057 11.7757 51.4576 11.6264 51.4576 11.4237V9.18368H48.6152V11.4237ZM60.1367 11.9997H57.6476C57.4446 11.9997 57.2944 11.957 57.1981 11.8717C57.1125 11.7757 57.0696 11.6264 57.0696 11.4237V1.05568C57.0696 0.853007 57.1125 0.709007 57.1981 0.623676C57.2944 0.527675 57.4446 0.479675 57.6476 0.479675H60.1367C60.3403 0.479675 60.4849 0.527675 60.5703 0.623676C60.6667 0.709007 60.7148 0.853007 60.7148 1.05568V4.73568H61.3572L63.0113 1.00768C63.0864 0.815676 63.1879 0.682344 63.3164 0.607676C63.4448 0.522342 63.6112 0.479675 63.8142 0.479675H66.2873C66.4696 0.479675 66.5924 0.527675 66.6566 0.623676C66.7208 0.709007 66.7157 0.837007 66.6405 1.00768L65.0025 4.73568C65.6025 4.76768 66.0785 4.98101 66.4318 5.37568C66.796 5.75968 66.9778 6.27168 66.9778 6.91168V11.4237C66.9778 11.6264 66.9296 11.7757 66.8333 11.8717C66.7478 11.957 66.6033 11.9997 66.3997 11.9997H63.9266C63.7236 11.9997 63.5733 11.957 63.477 11.8717C63.3915 11.7757 63.3485 11.6264 63.3485 11.4237V8.30368C63.3485 8.13299 63.3061 7.99968 63.22 7.90368C63.1346 7.80768 63.0061 7.75968 62.8346 7.75968H60.7148V11.4237C60.7148 11.6264 60.6667 11.7757 60.5703 11.8717C60.4849 11.957 60.3403 11.9997 60.1367 11.9997ZM74.1033 11.9997H71.5018C71.2982 11.9997 71.1485 11.957 71.0521 11.8717C70.9667 11.7757 70.9237 11.6264 70.9237 11.4237V3.56768H68.563C68.3594 3.56768 68.2097 3.52501 68.1134 3.43968C68.0279 3.34368 67.9849 3.19434 67.9849 2.99168V1.05568C67.9849 0.853007 68.0279 0.709007 68.1134 0.623676C68.2097 0.527675 68.3594 0.479675 68.563 0.479675H77.0421C77.2457 0.479675 77.3902 0.527675 77.4757 0.623676C77.572 0.709007 77.6202 0.853007 77.6202 1.05568V2.99168C77.6202 3.19434 77.572 3.34368 77.4757 3.43968C77.3902 3.52501 77.2457 3.56768 77.0421 3.56768H74.6814V11.4237C74.6814 11.6264 74.6333 11.7757 74.5369 11.8717C74.4515 11.957 74.3069 11.9997 74.1033 11.9997Z" fill="#444444"/>
</g>
<defs>
<clipPath id="clip0_639_10389">
<rect width="78" height="12" fill="white"/>
</clipPath>
</defs>
</svg>
